<?xml version="1.0" encoding="utf-8"?>
<!-- Generator: Adobe Illustrator 25.2.1, SVG Export Plug-In . SVG Version: 6.00 Build 0)  -->
<svg version="1.1" id="Capa_1" xmlns="http://www.w3.org/2000/svg" xmlns:xlink="http://www.w3.org/1999/xlink" x="0px" y="0px"
	 viewBox="0 0 446.33 454.76" style="enable-background:new 0 0 446.33 454.76;" xml:space="preserve">
<style type="text/css">
	.st0{fill:#232323;}
	.st1{fill:#575354;}
	.st2{fill:#86C27E;}
	.st3{fill:#242424;}
	.st4{fill:#252525;}
</style>
<g>
	<path class="st0" d="M157.06,428.4c-19.26-7.96-28.49-24.5-36.37-42.42c-1.61,2.26-2.89,4.86-4.95,6.92
		c-4.91,4.9-10.41,5.16-15.52,0.46c-5.98-5.51-8.81-12.75-10.08-20.5c-2.7-16.48-0.77-32.04,10.69-45.19
		c7.79-8.94,17.63-15.34,27.57-21.55c5.6-3.5,11.3-6.85,17.04-10.12c1.8-1.03,2.44-1.99,1.91-4.2c-3.35-14.18-6.64-28.38-9.73-42.62
		c-6.61-30.39-9.07-61.18-7.87-92.23c0.37-9.52,1.44-19.04,4.43-28.2c1.15-3.52,2.5-6.97,5.06-9.72c1.1-1.17,1.24-2.36,1.1-3.82
		c-0.25-2.56-0.08-5.1,0.9-7.51c1.26-3.11,3.55-4.89,6.92-5.18c3.54-0.3,6.2,1.21,7.91,4.24c1.69,2.98,1.96,6.26,1.62,9.63
		c-0.11,1.07-0.69,2.1,0.41,3.17c8.44,8.22,11.93,18.98,15.27,30.05c1.32-0.66,1.63-2.05,2.31-3.13
		c7.91-12.59,17.43-23.52,31.13-30.08c5.69-2.72,11.72-4.38,18.06-3.89c3.47,0.27,3.64-1.09,3.15-3.88
		c-2.14-12.24-6.8-23.61-11.78-34.88c-2.66-6.02-5.49-11.99-6.52-18.61c-2.72-17.42,8.64-34.27,25.84-38.18
		c29.09-6.61,64.68,14.97,71.63,43.67c3.65,15.09,1.19,29.84-3.79,44.25c-5.21,15.06-13.03,28.67-23.64,40.59
		c-1.5,1.68-1.79,2.82-0.44,4.76c1.41,2.02,2.45,3.42,5.38,2.5c9.54-2.98,17.65-8.32,25.21-14.62c6.36-5.3,12.44-10.94,18.93-16.07
		c6.79-5.37,14.43-8.69,23.36-6.76c9.46,2.04,15.68,9.66,17.34,20.83c0.12,0.8-0.35,1.85,0.78,2.32c0,0.51,0,1.02,0,1.53
		c-0.63,2.81-0.63,5.61,0,8.42c0,1.28,0,2.55,0,3.83c-0.64,6.11-2.07,11.96-5.44,17.22c-7.04,11.02-17.17,17.55-29.75,20.42
		c-12.01,2.74-24.01,2.04-36.37-0.68c0.66,4.52,2.12,8.56,3.23,12.65c3.1,11.43,5.68,23.01,9.96,34.11
		c7.24,18.8,17.69,35.53,31.7,50c0.53,0.55,1.09,1.07,1.6,1.64c2.85,3.15,2.81,5.22-0.25,8.18c-5.97,5.77-12.54,10.82-19.28,15.63
		c-24.65,17.58-51.62,30.62-79.99,40.97c-14,5.11-28.36,9.13-42.33,14.33c-7.9,2.94-15.59,6.28-22.33,11.48
		c-6.03,4.66-8.63,10.37-6.42,18.08c1.87,6.51,2.9,13.21,1.6,20c-1.11,5.84-3.77,10.51-10.01,12.17
		C163.18,428.4,160.12,428.4,157.06,428.4z"/>
	<path class="st1" d="M370.31,148.37c-1.22-2.81-1.29-5.61,0-8.42C370.31,142.75,370.31,145.56,370.31,148.37z"/>
	<path class="st2" d="M142.95,124.66c4.99,4.67,5.6,4.82,10.87,1.41c1.75-1.13,1.98,0.38,2.54,1.08c3.9,4.96,6.37,10.66,8.41,16.57
		c1.66,4.81,2.97,9.71,3.98,14.71c0.38,1.88,0.44,4.28,3.19,4.59c2.7,0.3,3.32-1.84,4.2-3.66c6.69-13.86,15.4-26.07,28.55-34.56
		c6.12-3.95,12.85-5.98,20.17-6.03c2.95-0.02,4.44,0.57,4.41,4.23c-0.08,10.25-1.12,20.32-3.68,30.24
		c-0.16,0.62-0.34,1.23-0.44,1.86c-1.86,12.43,4.93,18.98,17.15,16.21c10.73-2.43,19.35-8.74,27.46-15.83
		c3.48-3.04,3.43-3.04,5.93,0.95c10.71,17.01,16.43,35.94,21.2,55.24c3.02,12.22,6.51,24.29,11.72,35.78
		c0.66,1.45,0.96,2.36-0.69,3.42c-8.79,5.61-11.61,14.47-12.5,24.14c-1.24,13.5,1.7,26.35,7.2,38.59c1.27,2.82,0.56,3.81-1.76,5.16
		c-27.12,15.87-56.27,26.89-86.16,36.15c-11.53,3.57-22.94,7.37-33.3,13.76c-3.38,2.08-6.49,4.47-9.18,7.4
		c-5.28,5.75-7.32,12.28-5.35,20.04c1.62,6.39,3.42,12.84,1.8,19.56c-1.28,5.31-4.14,7.1-9.49,5.99c-4.37-0.9-8.17-3.05-11.29-6.06
		c-12.31-11.85-21.16-25.67-23.15-43.08c-1.18-10.33,2.05-19.59,7.42-28.22c3.72-5.97,8.11-11.47,12.94-16.51
		c8.62-8.99,10.3-19.81,9.26-31.5c-1.07-12.09-4.81-23.62-7.62-35.34c-7.2-29.97-11.04-60.35-10.9-91.18
		c0.05-12.1,0.66-24.19,3.6-36.03C140.23,130.65,141.22,127.64,142.95,124.66z"/>
	<path class="st3" d="M195.98,161.2c-0.01,5.17-2.98,9.45-6.72,9.68c-3.77,0.24-7.06-3.62-7.6-8.91
		c-0.55-5.44,2.61-10.56,6.68-10.79C192.48,150.95,195.99,155.54,195.98,161.2z"/>
	<path class="st4" d="M162.97,208.86c-5.42-0.28-10.76-3.39-14.15-9.56c-0.58-1.06-1.7-2.6,0.2-3.62c1.65-0.89,2.17,0.69,2.94,1.58
		c7.44,8.6,18.14,8.55,25.47-0.17c0.75-0.89,1.36-2.12,2.69-1.35c1.47,0.85,0.74,2.23,0.3,3.38
		C178.27,204.83,171.62,208.9,162.97,208.86z"/>
</g>
</svg>
